<svg width="127" height="34" viewBox="0 0 127 34" fill="none" xmlns="http://www.w3.org/2000/svg">
<path d="M25.3763 33.352C23.4243 33.352 21.1043 32.888 18.4163 31.96L11.7443 29.56C10.2403 29.112 9.04031 28.888 8.14431 28.888C7.53631 29.176 6.75231 29.512 5.79231 29.896C4.86431 30.248 3.76031 30.648 2.48031 31.096C2.09631 31.192 1.76031 31.24 1.47231 31.24C0.704313 31.24 0.320312 30.952 0.320312 30.376C0.320312 29.672 0.736313 29 1.56831 28.36C2.33631 27.848 3.10431 27.528 3.87231 27.4C4.51231 27.272 5.21631 27.192 5.98431 27.16C6.78431 27.128 7.63231 27.144 8.52831 27.208C16.0163 22.696 20.9123 19.528 23.2163 17.704C25.3923 16.008 27.0243 14.488 28.1123 13.144C29.6163 11.352 30.5283 9.432 30.8483 7.384C30.8803 7.224 30.8963 7.08 30.8963 6.952C30.9283 6.824 30.9443 6.696 30.9443 6.568C30.9443 4.84 29.8563 3.976 27.6803 3.976C25.5683 3.976 22.9283 4.696 19.7603 6.136C16.8803 7.448 14.5763 8.872 12.8483 10.408C12.7203 10.536 12.5763 10.6 12.4163 10.6C12.0963 10.6 11.9363 10.408 11.9363 10.024C11.9363 9.768 12.0323 9.576 12.2243 9.448C14.4323 7.56 17.2803 5.832 20.7683 4.264C24.6083 2.568 27.8403 1.72 30.4643 1.72C33.4083 1.72 34.8803 2.856 34.8803 5.128C34.8803 5.288 34.8643 5.464 34.8323 5.656C34.8323 5.816 34.8163 5.992 34.7843 6.184C34.4003 8.424 32.9443 10.824 30.4163 13.384C29.7123 14.088 28.8003 14.92 27.6803 15.88C26.5603 16.84 25.2483 17.928 23.7443 19.144C20.3843 21.768 15.7283 24.648 9.77631 27.784C11.1843 27.912 13.6803 28.584 17.2643 29.8C20.6883 30.952 23.4883 31.528 25.6643 31.528C26.9123 31.528 28.0803 31.288 29.1683 30.808C30.5763 30.232 31.2803 29.384 31.2803 28.264C31.2803 26.984 30.3043 25.992 28.3523 25.288C28.0963 25.192 27.9683 25.064 27.9683 24.904C27.9683 24.488 28.2403 24.36 28.7843 24.52C31.4403 25.288 32.7683 26.568 32.7683 28.36C32.7683 29.864 31.8723 31.128 30.0803 32.152C28.6083 32.952 27.0403 33.352 25.3763 33.352ZM38.8373 31.432C38.1973 31.432 37.5893 31.384 37.0133 31.288C34.3573 30.936 33.0293 29.048 33.0293 25.624C33.0293 22.264 34.2773 18.552 36.7733 14.488C38.3093 11.928 40.5173 9.432 43.3973 7C46.1493 4.632 48.9333 2.808 51.7493 1.528C51.6213 1.4 51.5573 1.272 51.5573 1.144C51.5573 0.919999 51.8133 0.759999 52.3253 0.663999C52.8373 0.567998 53.4933 0.551998 54.2933 0.615999C55.2213 0.296 56.4533 0.136 57.9893 0.136C60.3893 0.136 61.5893 0.584 61.5893 1.48C61.5253 1.928 61.2053 2.024 60.6293 1.768C59.5733 1.384 58.5973 1.208 57.7013 1.24C58.6933 1.56 59.6053 2.12 60.4373 2.92C62.2293 4.616 63.1253 6.776 63.1253 9.4C63.1253 11.8 62.4053 14.328 60.9653 16.984C59.5893 19.608 57.7173 21.96 55.3493 24.04C49.8133 28.968 44.3093 31.432 38.8373 31.432ZM37.5893 30.232C42.1333 30.616 47.3013 28.264 53.0933 23.176C58.0853 18.792 60.5813 14.024 60.5813 8.872C60.5813 6.44 60.0693 4.808 59.0453 3.976C57.4773 2.76 56.0053 2.024 54.6293 1.768C51.6533 2.696 48.5173 4.728 45.2213 7.864C42.7893 10.232 40.7733 12.648 39.1733 15.112C36.5493 19.176 35.2373 22.936 35.2373 26.392C35.2373 28.824 36.0213 30.104 37.5893 30.232ZM84.1576 33.352C82.2056 33.352 79.8856 32.888 77.1976 31.96L70.5256 29.56C69.0216 29.112 67.8216 28.888 66.9256 28.888C66.3176 29.176 65.5336 29.512 64.5736 29.896C63.6456 30.248 62.5416 30.648 61.2616 31.096C60.8776 31.192 60.5416 31.24 60.2536 31.24C59.4856 31.24 59.1016 30.952 59.1016 30.376C59.1016 29.672 59.5176 29 60.3496 28.36C61.1176 27.848 61.8856 27.528 62.6536 27.4C63.2936 27.272 63.9976 27.192 64.7656 27.16C65.5656 27.128 66.4136 27.144 67.3096 27.208C74.7976 22.696 79.6936 19.528 81.9976 17.704C84.1736 16.008 85.8056 14.488 86.8936 13.144C88.3976 11.352 89.3096 9.432 89.6296 7.384C89.6616 7.224 89.6776 7.08 89.6776 6.952C89.7096 6.824 89.7256 6.696 89.7256 6.568C89.7256 4.84 88.6376 3.976 86.4616 3.976C84.3496 3.976 81.7096 4.696 78.5416 6.136C75.6616 7.448 73.3576 8.872 71.6296 10.408C71.5016 10.536 71.3576 10.6 71.1976 10.6C70.8776 10.6 70.7176 10.408 70.7176 10.024C70.7176 9.768 70.8136 9.576 71.0056 9.448C73.2136 7.56 76.0616 5.832 79.5496 4.264C83.3896 2.568 86.6216 1.72 89.2456 1.72C92.1896 1.72 93.6616 2.856 93.6616 5.128C93.6616 5.288 93.6456 5.464 93.6136 5.656C93.6136 5.816 93.5976 5.992 93.5656 6.184C93.1816 8.424 91.7256 10.824 89.1976 13.384C88.4936 14.088 87.5816 14.92 86.4616 15.88C85.3416 16.84 84.0296 17.928 82.5256 19.144C79.1656 21.768 74.5096 24.648 68.5576 27.784C69.9656 27.912 72.4616 28.584 76.0456 29.8C79.4696 30.952 82.2696 31.528 84.4456 31.528C85.6936 31.528 86.8616 31.288 87.9496 30.808C89.3576 30.232 90.0616 29.384 90.0616 28.264C90.0616 26.984 89.0856 25.992 87.1336 25.288C86.8776 25.192 86.7496 25.064 86.7496 24.904C86.7496 24.488 87.0216 24.36 87.5656 24.52C90.2216 25.288 91.5496 26.568 91.5496 28.36C91.5496 29.864 90.6536 31.128 88.8616 32.152C87.3896 32.952 85.8216 33.352 84.1576 33.352ZM102.467 31.48C99.3306 31.48 96.8026 31 94.8826 30.04C92.8026 29.016 91.7626 27.576 91.7626 25.72C91.7626 24.728 92.0666 23.672 92.6746 22.552C93.4746 21.112 95.0586 19.88 97.4266 18.856C99.4426 18.024 101.187 17.608 102.659 17.608C103.043 17.608 103.235 17.736 103.235 17.992C103.235 18.312 103.011 18.472 102.563 18.472C101.539 18.472 100.227 18.952 98.6266 19.912C96.8346 21.032 95.7786 22.152 95.4586 23.272C95.3946 23.56 95.3306 23.848 95.2666 24.136C95.2346 24.392 95.2186 24.648 95.2186 24.904C95.2186 27.688 97.1226 29.416 100.931 30.088C104.643 30.76 108.499 30.184 112.499 28.36C116.979 26.28 120.003 23.288 121.571 19.384C121.795 18.84 121.907 18.296 121.907 17.752C121.907 16.472 121.187 15.528 119.747 14.92C118.499 14.376 116.963 14.104 115.139 14.104C113.251 14.104 111.683 14.344 110.435 14.824C110.147 14.952 109.843 15.016 109.523 15.016C108.947 15.016 108.659 14.744 108.659 14.2C108.659 13.848 108.787 13.528 109.043 13.24C109.299 12.92 109.635 12.76 110.051 12.76C112.803 12.76 115.379 12.296 117.779 11.368C120.851 10.152 122.579 8.44 122.963 6.232C122.995 6.104 123.011 5.992 123.011 5.896C123.011 5.8 123.011 5.704 123.011 5.608C123.011 4.232 122.099 3.544 120.275 3.544C118.675 3.544 116.723 3.976 114.419 4.84C112.371 5.608 110.595 6.472 109.091 7.432C108.963 7.528 108.851 7.576 108.755 7.576C108.531 7.576 108.419 7.368 108.419 6.952C108.419 5.992 108.723 5.448 109.331 5.32C110.067 5.096 111.235 4.232 112.835 2.728C113.027 2.536 113.203 2.472 113.363 2.536C113.523 2.6 113.603 2.712 113.603 2.872C113.603 3.064 113.507 3.256 113.315 3.448C113.219 3.512 113.091 3.64 112.931 3.832C116.355 2.36 119.219 1.624 121.523 1.624C124.659 1.624 126.163 3.08 126.035 5.992C125.875 8.776 123.011 11.032 117.443 12.76C122.275 13.272 124.691 14.968 124.691 17.848C124.691 18.328 124.627 18.776 124.499 19.192C123.539 22.968 120.707 26.04 116.003 28.408C111.875 30.456 107.363 31.48 102.467 31.48Z" fill="white"/>
</svg>
