<svg width="148" height="42" viewBox="0 0 148 42" fill="none" xmlns="http://www.w3.org/2000/svg">
<path d="M8.92944 41.24C6.27344 41.24 4.14544 40.552 2.54544 39.176C0.945438 37.832 0.145438 35.976 0.145438 33.608C0.145438 32.008 0.497438 30.552 1.20144 29.24C2.09744 27.48 3.31344 25.88 4.84944 24.44C6.38544 22.968 8.04944 21.784 9.84144 20.888C11.6654 19.992 13.4254 19.544 15.1214 19.544C17.2974 19.544 18.9934 20.056 20.2094 21.08C21.4574 22.104 22.0814 23.448 22.0814 25.112C22.0814 26.008 21.8894 26.872 21.5054 27.704C21.1534 28.536 20.7054 29.24 20.1614 29.816C19.3614 30.712 18.7214 31.16 18.2414 31.16C18.1134 31.16 18.0494 31.096 18.0494 30.968C18.0494 30.872 18.0974 30.728 18.1934 30.536C19.3454 28.84 19.9214 27.208 19.9214 25.64C19.9214 24.232 19.4734 23.064 18.5774 22.136C17.6814 21.208 16.4814 20.744 14.9774 20.744C13.5374 20.744 12.0974 21.176 10.6574 22.04C9.21744 22.872 7.88944 23.976 6.67344 25.352C5.48944 26.696 4.51344 28.152 3.74544 29.72C2.94544 31.288 2.54544 32.808 2.54544 34.28C2.54544 36.232 3.16944 37.704 4.41744 38.696C5.69744 39.72 7.36144 40.232 9.40944 40.232C17.5694 40.232 26.0814 33.096 34.9454 18.824C40.2574 10.312 42.9774 5.096 43.1054 3.176L40.2734 3.032C39.5054 3 38.5934 3.096 37.5374 3.32C36.4814 3.512 35.4254 3.816 34.3694 4.232C33.3134 4.616 32.3534 5.08 31.4894 5.624C30.6574 6.136 30.0654 6.712 29.7134 7.352C29.4254 7.832 29.2814 8.296 29.2814 8.744C29.2814 9.448 29.5854 10.152 30.1934 10.856C30.8014 11.56 31.1054 11.976 31.1054 12.104C31.1054 12.264 30.9134 12.376 30.5294 12.44C30.4334 12.472 30.3054 12.488 30.1454 12.488C29.4734 12.488 28.8334 12.184 28.2254 11.576C27.5214 10.872 27.1694 10.024 27.1694 9.032C27.1694 8.136 27.4574 7.304 28.0334 6.536C28.8334 5.448 29.9374 4.584 31.3454 3.944C32.7854 3.304 34.3214 2.856 35.9534 2.6C37.6174 2.312 39.1854 2.184 40.6574 2.216C40.9454 2.216 41.7294 2.264 43.0094 2.36C42.9454 1.944 43.1054 1.56 43.4894 1.208C43.9054 0.823998 44.3694 0.631999 44.8814 0.631999C45.8414 0.631999 46.3054 1.32 46.2734 2.696C49.7294 3.304 51.5534 4.232 51.7454 5.48C51.7774 5.608 51.7934 5.736 51.7934 5.864C51.7934 5.992 51.7934 6.104 51.7934 6.2C51.7934 6.84 51.6174 7.16 51.2654 7.16C50.9774 7.16 50.8334 6.952 50.8334 6.536C50.8334 6.472 50.8334 6.392 50.8334 6.296C50.8334 6.2 50.8494 6.104 50.8814 6.008C50.0814 4.824 48.4974 3.992 46.1294 3.512C45.5534 6.104 42.5454 11.736 37.1054 20.408C35.4414 23.064 33.5214 25.64 31.3454 28.136C29.1694 30.6 26.8494 32.824 24.3854 34.808C21.9214 36.792 19.3774 38.36 16.7534 39.512C14.1294 40.664 11.5214 41.24 8.92944 41.24ZM39.9982 35.528C38.5582 35.528 37.8382 34.616 37.8382 32.792C37.8382 32.088 38.0462 31.256 38.4622 30.296C38.9102 29.304 39.5342 28.264 40.3342 27.176C40.3342 27.176 40.0462 27.448 39.4702 27.992C38.8942 28.536 38.2382 29.224 37.5022 30.056C37.3742 30.184 37.2142 30.248 37.0222 30.248C36.8942 30.248 36.8302 30.168 36.8302 30.008C36.8302 29.848 36.9742 29.576 37.2622 29.192L43.8862 21.416C44.7182 20.456 45.6302 19.976 46.6222 19.976C47.3582 19.976 47.7262 20.264 47.7262 20.84C47.7262 21.064 47.6302 21.272 47.4382 21.464C46.8302 22.04 46.0782 22.856 45.1822 23.912C44.3182 24.968 43.4702 26.104 42.6382 27.32C41.8062 28.536 41.1022 29.704 40.5262 30.824C39.9822 31.912 39.7102 32.792 39.7102 33.464C39.7102 34.04 39.9022 34.328 40.2862 34.328C40.5102 34.328 40.8622 34.248 41.3422 34.088C41.8222 33.896 42.4622 33.528 43.2622 32.984C44.0622 32.408 45.0222 31.528 46.1422 30.344C46.3342 30.152 46.8462 29.576 47.6782 28.616C48.5102 27.656 49.6302 26.28 51.0382 24.488C53.5342 21.384 55.1662 19.832 55.9342 19.832C56.9902 19.832 57.5662 20.264 57.6622 21.128C57.7262 21.416 57.0542 22.36 55.6462 23.96C53.8222 26.168 52.5742 27.752 51.9022 28.712C50.6542 30.536 50.0302 31.96 50.0302 32.984C50.0302 33.688 50.2702 34.04 50.7502 34.04C51.2302 34.04 51.8382 33.816 52.5742 33.368C53.3422 32.888 54.1422 32.296 54.9742 31.592C55.8062 30.856 56.6062 30.104 57.3742 29.336C58.1742 28.536 58.8622 27.8 59.4382 27.128C59.6302 26.904 59.8222 26.792 60.0142 26.792C60.2062 26.792 60.3022 26.888 60.3022 27.08C60.3022 27.144 60.2862 27.24 60.2542 27.368C60.2222 27.496 60.1262 27.64 59.9662 27.8C59.4542 28.376 58.7982 29.096 57.9982 29.96C57.1982 30.792 56.3342 31.624 55.4062 32.456C54.4782 33.288 53.5822 33.976 52.7182 34.52C51.8542 35.064 51.1182 35.336 50.5102 35.336C49.7742 35.336 49.1342 35.144 48.5902 34.76C48.0462 34.344 47.7742 33.784 47.7742 33.08C47.7742 32.376 47.8862 31.672 48.1102 30.968C48.3342 30.232 48.5102 29.608 48.6382 29.096C47.1342 30.856 45.8062 32.2 44.6542 33.128C43.5342 34.056 42.5902 34.68 41.8222 35C41.0542 35.352 40.4462 35.528 39.9982 35.528ZM70.3728 35.096C69.5088 35.096 68.9008 34.856 68.5488 34.376C68.1968 33.864 68.0208 33.24 68.0208 32.504C68.0208 30.648 68.6608 28.664 69.9408 26.552L73.0128 21.56C70.8368 23.16 68.6768 25.16 66.5328 27.56C65.9568 28.2 65.3008 28.952 64.5648 29.816C63.8608 30.68 63.0768 31.672 62.2128 32.792C61.0608 34.296 60.3728 35.048 60.1488 35.048C59.7008 35.048 59.3328 34.856 59.0448 34.472C58.7568 34.056 58.6128 33.688 58.6128 33.368C58.6128 33.112 58.6928 32.648 58.8528 31.976C59.0128 31.272 59.2048 30.664 59.4288 30.152C59.6528 29.608 59.8768 29.08 60.1008 28.568C60.3568 28.024 60.5968 27.496 60.8208 26.984L57.9408 30.008C57.8768 30.072 57.6848 30.264 57.3648 30.584C57.0448 30.904 56.7888 31.064 56.5968 31.064C56.4368 31.064 56.3568 30.952 56.3568 30.728C56.3568 30.664 56.3888 30.584 56.4528 30.488C56.4848 30.36 56.5808 30.216 56.7408 30.056C57.2208 29.576 57.7168 29.064 58.2288 28.52C58.7408 27.976 59.2688 27.352 59.8128 26.648C60.1008 26.296 60.5328 25.768 61.1088 25.064C61.6848 24.328 62.3088 23.544 62.9808 22.712C63.6848 21.88 64.3408 21.112 64.9488 20.408C65.1088 20.184 65.2848 20.04 65.4768 19.976C65.6688 19.88 65.7968 19.832 65.8608 19.832C66.7248 19.832 67.1568 20.168 67.1568 20.84C67.1568 21.032 67.1088 21.224 67.0128 21.416C64.1328 25.384 62.4048 28.408 61.8288 30.488C65.5408 26.776 68.5168 23.992 70.7568 22.136C73.0288 20.248 74.6448 19.304 75.6048 19.304C76.1168 19.304 76.5008 19.384 76.7568 19.544C77.0448 19.704 77.1888 20.008 77.1888 20.456C77.1888 20.616 77.1728 20.744 77.1408 20.84C77.0448 21.064 76.3888 21.96 75.1728 23.528C74.4368 24.424 73.7808 25.24 73.2048 25.976C72.6608 26.712 72.2128 27.352 71.8608 27.896C71.2848 28.792 70.8528 29.64 70.5648 30.44C70.2768 31.208 70.1328 31.864 70.1328 32.408C70.1328 32.632 70.1648 32.904 70.2288 33.224C70.2928 33.544 70.4848 33.704 70.8048 33.704C71.5408 33.704 72.6928 33.064 74.2608 31.784C74.9968 31.144 75.6848 30.504 76.3248 29.864C76.9648 29.192 77.5728 28.536 78.1488 27.896C78.2768 27.768 78.4848 27.528 78.7728 27.176C79.0608 26.792 79.2368 26.6 79.3008 26.6C79.4288 26.6 79.4928 26.728 79.4928 26.984C79.4928 27.112 79.4128 27.336 79.2528 27.656C79.1248 27.944 78.9808 28.168 78.8208 28.328C78.4688 28.744 77.9408 29.32 77.2368 30.056C76.5648 30.792 75.7968 31.544 74.9328 32.312C74.1008 33.08 73.2848 33.736 72.4848 34.28C71.6848 34.824 70.9808 35.096 70.3728 35.096ZM79.9402 35.624C78.9162 35.624 77.9882 35.304 77.1562 34.664C76.3242 33.992 75.9082 33.112 75.9082 32.024C75.9082 29.752 77.3002 27.16 80.0842 24.248C82.9322 21.304 85.4762 19.832 87.7162 19.832C88.4522 19.832 89.0442 20.04 89.4922 20.456C89.9722 20.84 90.2122 21.32 90.2122 21.896C90.2122 23.688 88.7882 25.448 85.9402 27.176C83.4122 28.712 81.2842 29.48 79.5562 29.48C79.3002 29.48 79.0762 29.448 78.8842 29.384C78.4042 30.248 78.1642 31.16 78.1642 32.12C78.1642 33.784 78.9482 34.616 80.5162 34.616C82.1162 34.616 84.1802 33.544 86.7082 31.4C88.6602 29.832 90.3242 28.168 91.7002 26.408C91.9882 26.024 92.2442 25.832 92.4682 25.832C92.6602 25.832 92.7562 25.928 92.7562 26.12C92.7562 26.312 92.6282 26.584 92.3722 26.936C91.4762 28.12 90.5162 29.208 89.4922 30.2C88.4682 31.192 87.3642 32.104 86.1802 32.936C83.7162 34.728 81.6362 35.624 79.9402 35.624ZM80.2282 28.424C81.4442 28.424 83.0282 27.816 84.9802 26.6C85.6202 26.152 86.2442 25.656 86.8522 25.112C87.4922 24.536 88.0042 23.96 88.3882 23.384C88.8042 22.808 89.0122 22.296 89.0122 21.848C89.0122 21.432 88.6762 21.224 88.0042 21.224C87.0442 21.224 85.7002 21.944 83.9722 23.384C83.1402 24.088 82.3402 24.856 81.5722 25.688C80.8042 26.52 80.1482 27.4 79.6042 28.328C79.7962 28.392 80.0042 28.424 80.2282 28.424ZM100.2 36.056C99.9439 36.152 99.7199 36.056 99.5279 35.768C99.3679 35.48 99.2879 35.16 99.2879 34.808C99.2879 34.328 99.4319 34.04 99.7199 33.944C100.264 33.688 100.936 33.416 101.736 33.128C102.568 32.84 103.512 32.52 104.568 32.168C105.88 29.736 107.528 26.696 109.512 23.048C111.528 19.4 113.896 15.128 116.616 10.232C114.856 11.32 112.616 12.376 109.896 13.4C109.416 13.592 109.176 13.432 109.176 12.92C109.176 12.632 109.32 12.424 109.608 12.296C111.784 11.464 114.808 9.544 118.68 6.536L118.968 6.056C119.288 5.448 120.008 5.144 121.128 5.144C122.056 5.144 122.52 5.384 122.52 5.864C122.52 5.96 122.472 6.088 122.376 6.248L106.92 31.784C109.096 31.4 111.384 31.208 113.784 31.208C114.136 31.208 114.312 31.384 114.312 31.736C114.312 32.184 114.072 32.408 113.592 32.408C111.48 32.408 109.192 32.792 106.728 33.56C106.248 33.72 105.464 34.008 104.376 34.424C103.288 34.84 101.896 35.384 100.2 36.056ZM123.462 35.432C122.822 35.432 122.214 35.384 121.638 35.288C118.982 34.936 117.654 33.048 117.654 29.624C117.654 26.264 118.902 22.552 121.398 18.488C122.934 15.928 125.142 13.432 128.022 11C130.774 8.632 133.558 6.808 136.374 5.528C136.246 5.4 136.182 5.272 136.182 5.144C136.182 4.92 136.438 4.76 136.95 4.664C137.462 4.568 138.118 4.552 138.918 4.616C139.846 4.296 141.078 4.136 142.614 4.136C145.014 4.136 146.214 4.584 146.214 5.48C146.15 5.928 145.83 6.024 145.254 5.768C144.198 5.384 143.222 5.208 142.326 5.24C143.318 5.56 144.23 6.12 145.062 6.92C146.854 8.616 147.75 10.776 147.75 13.4C147.75 15.8 147.03 18.328 145.59 20.984C144.214 23.608 142.342 25.96 139.974 28.04C134.438 32.968 128.934 35.432 123.462 35.432ZM122.214 34.232C126.758 34.616 131.926 32.264 137.718 27.176C142.71 22.792 145.206 18.024 145.206 12.872C145.206 10.44 144.694 8.808 143.67 7.976C142.102 6.76 140.63 6.024 139.254 5.768C136.278 6.696 133.142 8.728 129.846 11.864C127.414 14.232 125.398 16.648 123.798 19.112C121.174 23.176 119.862 26.936 119.862 30.392C119.862 32.824 120.646 34.104 122.214 34.232Z" fill="white"/>
</svg>
